<?xml version="1.0" standalone="no"?>
<!DOCTYPE svg PUBLIC "-//W3C//DTD SVG 20010904//EN"
 "http://www.w3.org/TR/2001/REC-SVG-20010904/DTD/svg10.dtd">
<svg version="1.0" xmlns="http://www.w3.org/2000/svg"
 width="636.000000pt" height="142.000000pt" viewBox="0 0 636.000000 142.000000"
 preserveAspectRatio="xMidYMid meet">

<g transform="translate(0.000000,142.000000) scale(0.100000,-0.100000)"
fill="#000000" stroke="none">
<path d="M2440 1200 c-85 -21 -120 -126 -62 -190 77 -87 243 -41 246 68 2 88
-85 146 -184 122z"/>
<path d="M1407 1170 c-71 -5 -135 -11 -143 -14 -12 -5 -14 -76 -14 -476 0
-258 1 -470 3 -470 57 -10 301 -16 387 -9 341 26 513 162 551 437 29 206 -62
386 -236 469 -124 59 -295 78 -548 63z m334 -207 c73 -23 140 -90 159 -158 8
-28 14 -83 13 -124 -1 -63 -6 -85 -35 -140 -28 -55 -42 -71 -87 -98 -61 -37
-127 -53 -211 -53 l-60 0 0 295 0 295 84 0 c52 0 104 -7 137 -17z"/>
<path d="M4721 1170 c-67 -5 -129 -11 -137 -14 -12 -4 -14 -81 -14 -469 0
-347 3 -466 12 -475 17 -17 229 -17 246 0 8 8 12 60 12 168 l0 155 90 2 c267
7 415 126 413 333 -1 149 -95 254 -258 288 -77 16 -228 21 -364 12z m301 -206
c38 -20 58 -53 58 -97 0 -88 -63 -136 -177 -137 l-63 0 0 124 0 125 28 4 c41
7 123 -4 154 -19z"/>
<path d="M5651 1170 c-67 -5 -129 -11 -137 -14 -12 -4 -14 -81 -14 -469 0
-347 3 -466 12 -475 17 -17 229 -17 246 0 8 8 12 60 12 168 l0 155 90 2 c267
7 415 126 413 333 -1 149 -95 254 -258 288 -77 16 -228 21 -364 12z m301 -206
c38 -20 58 -53 58 -97 0 -88 -63 -136 -177 -137 l-63 0 0 124 0 125 28 4 c41
7 123 -4 154 -19z"/>
<path d="M3626 704 c-86 -257 -156 -474 -154 -483 3 -14 21 -16 133 -16 l129
0 35 117 35 118 138 0 137 0 38 -120 38 -120 131 0 c113 0 133 2 138 16 5 13
-251 785 -309 937 -6 15 -24 17 -170 17 l-163 0 -156 -466z m354 92 c21 -63
40 -126 44 -140 l6 -26 -91 0 c-68 0 -90 3 -86 13 3 6 22 71 43 144 22 72 41
130 43 128 2 -3 20 -56 41 -119z"/>
<path d="M3065 914 c-11 -2 -43 -9 -72 -15 -131 -26 -223 -149 -193 -259 20
-74 74 -119 199 -164 97 -35 111 -43 111 -67 0 -44 -103 -49 -218 -9 -70 23
-73 20 -100 -78 -18 -66 -18 -73 -3 -81 105 -54 328 -60 439 -11 118 52 170
163 127 268 -30 71 -64 96 -204 146 -94 35 -118 58 -86 82 24 19 106 14 172
-9 23 -8 46 -11 51 -8 5 3 19 40 31 80 21 70 22 76 6 88 -31 22 -211 48 -260
37z"/>
<path d="M2362 898 c-17 -17 -17 -669 0 -686 17 -17 229 -17 246 0 17 17 17
669 0 686 -17 17 -229 17 -246 0z"/>
<path d="M359 470 c-150 -19 -245 -55 -296 -113 -51 -58 -52 -148 -3 -210 31
-39 134 -84 235 -103 126 -24 454 -24 580 0 181 34 265 99 265 204 0 112 -66
168 -245 208 -81 18 -432 27 -536 14z"/>
</g>
</svg>
